<svg xmlns="http://www.w3.org/2000/svg" width="88" height="36" viewBox="0 0 88 36" fill="#fff" class="me-4"><g clip-path="url(#clip0)"><path d="M22.5882 17.1172C22.2045 16.2189 21.6328 15.4086 20.9096 14.7381C20.0997 14.0049 19.1744 13.4032 18.1689 12.9561C17.1375 12.4907 16.06 12.1295 14.9532 11.8779L14.4302 11.7599L11.9865 11.223C11.3919 11.1012 10.806 10.9419 10.2325 10.7463C9.76575 10.588 9.32025 10.3756 8.90552 10.1137C8.60921 9.92698 8.35319 9.68559 8.15184 9.40308C8.12444 9.36075 8.09474 9.31843 8.06962 9.27611C7.87334 8.94329 7.78347 8.56088 7.81154 8.17791C7.81451 7.76384 7.93208 7.35825 8.15184 7.00397C8.18838 6.94383 8.22949 6.88368 8.27289 6.82576C8.61824 6.39762 9.08177 6.07458 9.60896 5.89463C10.3237 5.6499 11.0785 5.53514 11.8357 5.55604C13.1847 5.55604 14.2231 5.83449 14.9509 6.39139H14.9646C15.4767 6.78475 15.8496 7.32456 16.0312 7.9351C16.0963 8.1574 16.2333 8.35323 16.4218 8.49334C16.6103 8.63346 16.8402 8.71035 17.0772 8.71253H21.6176C21.7732 8.71244 21.927 8.67976 22.0686 8.6167C22.2102 8.55363 22.3362 8.46165 22.4382 8.34698C22.5402 8.2323 22.6157 8.0976 22.6598 7.95199C22.7038 7.80638 22.7152 7.65324 22.6933 7.50295C22.5337 6.30271 22.0921 5.15462 21.4029 4.14821C20.4567 2.80276 19.1413 1.74436 17.6071 1.09419C16.7616 0.721085 15.8739 0.446677 14.9624 0.276665C13.9363 0.0867021 12.8938 -0.005804 11.8494 0.000444836C10.604 -0.00884044 9.36186 0.127267 8.14956 0.405865C7.43655 0.571067 6.74021 0.798453 6.06895 1.08528C4.48886 1.72785 3.11648 2.77545 2.09728 4.11702C1.13574 5.43494 0.639558 7.02204 0.683565 8.63902C0.669862 10.7508 1.37406 12.4244 2.79615 13.66C4.12841 14.8139 5.91288 15.67 8.14956 16.2284L8.63146 16.342L11.6119 17.0103C12.4896 17.1983 13.3491 17.4592 14.1813 17.7899C14.4529 17.8972 14.7143 18.0277 14.9624 18.1798C15.2307 18.3391 15.4725 18.5374 15.6795 18.7678C16.0058 19.1462 16.1831 19.6256 16.1797 20.12C16.1764 20.6613 15.9856 21.1857 15.6384 21.608C15.4439 21.8418 15.2127 22.0441 14.9532 22.2072C14.6925 22.3785 14.4119 22.5191 14.1173 22.626C13.3556 22.8873 12.5515 23.0111 11.7444 22.9913C10.8323 23.0088 9.92551 22.853 9.07453 22.5325C8.74333 22.4005 8.42968 22.2299 8.14042 22.0246C7.80441 21.7893 7.51108 21.501 7.27255 21.1714C6.96637 20.7434 6.75268 20.2591 6.64448 19.748C6.58983 19.5172 6.45671 19.3112 6.26679 19.1636C6.07687 19.016 5.84132 18.9354 5.59847 18.9349H1.08553C0.934536 18.9337 0.784957 18.9633 0.646401 19.0219C0.507845 19.0804 0.383377 19.1666 0.280995 19.2748C0.178613 19.3831 0.100581 19.511 0.0519128 19.6504C0.00324489 19.7899 -0.0149824 19.9377 -0.00159795 20.0843C0.109644 21.5971 0.609997 23.0581 1.45323 24.3324C2.46968 25.7777 3.91429 26.8859 5.5939 27.5089C6.41959 27.8308 7.27554 28.0733 8.14956 28.2329C9.36417 28.4547 10.5977 28.5629 11.8335 28.5559C12.8808 28.5626 13.9271 28.4881 14.9624 28.3331C15.9801 28.1871 16.9766 27.9246 17.9314 27.5512C19.6169 26.88 20.9111 25.9147 21.814 24.6554C22.7169 23.396 23.1737 21.8879 23.1843 20.1311C23.1916 19.0983 22.9931 18.0739 22.5996 17.115" fill="#fff"/><path d="M44.8121 19.3802C44.9559 19.3811 45.0985 19.3541 45.2315 19.3008C45.3645 19.2474 45.4853 19.1689 45.5869 19.0696C45.6885 18.9703 45.7688 18.8523 45.8232 18.7224C45.8776 18.5926 45.905 18.4535 45.9038 18.3132V17.714C45.9312 16.1621 45.6713 14.6182 45.1364 13.1564C44.6739 11.9062 43.9427 10.767 42.9919 9.81498C42.0685 8.90522 40.9511 8.20479 39.7191 7.76337C38.3807 7.28924 36.9657 7.05455 35.5419 7.07059C33.3859 7.07059 31.5146 7.52131 29.9281 8.42274C28.3524 9.31044 27.0713 10.621 26.2374 12.1985C25.3649 13.8157 24.9287 15.7017 24.9287 17.8566C24.9287 20.0752 25.3626 21.9887 26.2305 23.5971C27.0655 25.1701 28.3656 26.4622 29.9624 27.306C31.5824 28.1703 33.5115 28.6024 35.7497 28.6024C37.433 28.6343 39.1069 28.3507 40.6806 27.7671C42.0102 27.2723 43.194 26.465 44.127 25.417C44.687 24.7744 45.1296 24.0428 45.4356 23.254C45.4981 23.0959 45.5209 22.9254 45.5019 22.7569C45.4829 22.5885 45.4228 22.4269 45.3267 22.2857C45.2305 22.1446 45.101 22.0279 44.9491 21.9457C44.7972 21.8634 44.6273 21.8178 44.4536 21.8128L40.2786 21.6947C40.0825 21.6921 39.889 21.7399 39.7178 21.8334C39.5466 21.9268 39.4037 22.0626 39.3034 22.2271C39.1615 22.4551 38.987 22.6621 38.785 22.8419C38.4205 23.1668 37.9891 23.4121 37.5197 23.5614C36.9892 23.7312 36.4336 23.814 35.8753 23.8064C35.0883 23.8276 34.3097 23.6446 33.6189 23.2763C32.9935 22.9306 32.4855 22.4142 32.1572 21.7905C31.8012 21.1002 31.624 20.3354 31.641 19.5629V19.3802H44.8121ZM33.6211 12.3633C34.2503 12.0263 34.959 11.8558 35.6766 11.8688C36.3728 11.8556 37.0608 12.0167 37.675 12.3366C38.2441 12.6392 38.7179 13.0874 39.0453 13.6331C39.1327 13.7758 39.209 13.9248 39.2737 14.0786C39.34 14.2391 39.3648 14.4129 39.3459 14.585C39.3271 14.757 39.2652 14.9218 39.1658 15.0651C39.0663 15.2083 38.9323 15.3255 38.7755 15.4063C38.6187 15.4872 38.4439 15.5292 38.2665 15.5287H33.0136C32.8289 15.5289 32.6473 15.4831 32.4858 15.3956C32.3243 15.3081 32.1885 15.1819 32.091 15.0288C31.9936 14.8758 31.9378 14.701 31.929 14.5211C31.9202 14.3412 31.9587 14.162 32.0407 14.0006C32.0887 13.9026 32.1435 13.809 32.2006 13.7155C32.5514 13.156 33.0458 12.6953 33.6348 12.3789" fill="#fff"/><path d="M54.455 1.43921V27.1433C54.4553 27.2823 54.4275 27.4201 54.3731 27.5486C54.3187 27.6771 54.2388 27.7938 54.138 27.8922C54.0372 27.9905 53.9175 28.0684 53.7857 28.1215C53.654 28.1745 53.5128 28.2017 53.3702 28.2014H48.7294C48.4417 28.2014 48.1657 28.0899 47.9623 27.8915C47.7588 27.6931 47.6445 27.4239 47.6445 27.1433V1.43921C47.6445 1.15858 47.7588 0.88945 47.9623 0.691017C48.1657 0.492584 48.4417 0.381106 48.7294 0.381106H53.3702C53.5128 0.380812 53.654 0.40798 53.7857 0.461051C53.9175 0.514122 54.0372 0.59205 54.138 0.690362C54.2388 0.788675 54.3187 0.905436 54.3731 1.03394C54.4275 1.16245 54.4553 1.30017 54.455 1.43921Z" fill="#fff"/><path d="M64.6865 1.43921V27.1433C64.6868 27.2823 64.6589 27.4201 64.6045 27.5486C64.5501 27.6771 64.4702 27.7938 64.3694 27.8922C64.2686 27.9905 64.1489 28.0684 64.0171 28.1215C63.8854 28.1745 63.7442 28.2017 63.6016 28.2014H58.9608C58.6731 28.2014 58.3972 28.0899 58.1937 27.8915C57.9903 27.6931 57.876 27.4239 57.876 27.1433V1.43921C57.876 1.15858 57.9903 0.88945 58.1937 0.691017C58.3972 0.492584 58.6731 0.381106 58.9608 0.381106H63.6016C63.7442 0.380812 63.8854 0.40798 64.0171 0.461051C64.1489 0.514122 64.2686 0.59205 64.3694 0.690362C64.4702 0.788675 64.5501 0.905436 64.6045 1.03394C64.6589 1.16245 64.6868 1.30017 64.6865 1.43921Z" fill="#fff"/><path d="M71.8411 36.0003C71.0667 36.0033 70.2934 35.9414 69.5298 35.8154C69.2603 35.7708 69.0068 35.7196 68.7647 35.6639C68.6208 35.6303 68.4854 35.5684 68.3669 35.4819C68.2484 35.3955 68.1492 35.2864 68.0754 35.1613C68.0016 35.0361 67.9549 34.8976 67.9379 34.7542C67.9209 34.6108 67.9342 34.4656 67.9768 34.3273L68.8675 31.4738C68.9471 31.2239 69.1197 31.0122 69.3513 30.8803C69.583 30.7483 69.8569 30.7058 70.1191 30.761C70.643 30.879 71.1839 30.9076 71.7178 30.8456C72.3953 30.7521 72.9199 30.3481 73.2914 29.6338L73.3325 29.5447L73.4215 29.3353C73.5224 29.0969 73.5306 28.8307 73.4444 28.5869L66.458 8.73684C66.4021 8.57759 66.3859 8.40761 66.4108 8.24103C66.4357 8.07444 66.501 7.91606 66.6013 7.77905C66.7016 7.64203 66.8339 7.53032 66.9874 7.45321C67.1408 7.3761 67.3109 7.33581 67.4835 7.33569H72.2545C72.4949 7.33562 72.7286 7.41347 72.9188 7.55702C73.1089 7.70056 73.2448 7.90166 73.3051 8.12871L77.0369 22.2249H77.2653L81.0497 8.12649C81.1104 7.90007 81.2466 7.69975 81.4367 7.55701C81.6269 7.41428 81.8603 7.33721 82.1002 7.33792H86.9169C87.0894 7.33953 87.2591 7.38133 87.4117 7.45984C87.5643 7.53835 87.6954 7.65129 87.7942 7.78925C87.893 7.92722 87.9565 8.08621 87.9795 8.25298C88.0025 8.41975 87.9843 8.58946 87.9264 8.74798L80.3577 30.1996C79.9913 31.2818 79.4358 32.2939 78.7156 33.1913C77.9849 34.0823 77.0448 34.7883 75.9749 35.2496C74.8589 35.7485 73.4824 35.998 71.8457 35.998" fill="#fff"/></g><defs><clipPath id="clip0"><rect width="88" height="36" fill="currentColor"/></clipPath></defs></svg>